Coordinates
version=1
nRows=9
nColumns=24
inDegrees=yes

Units are S.I. units (second, meters, Newtons, ...)
Angles are in degrees.

endheader
time	pelvis_tilt	pelvis_list	pelvis_rotation	pelvis_tx	pelvis_ty	pelvis_tz	hip_flexion_r	hip_adduction_r	hip_rotation_r	knee_angle_r	ankle_angle_r	subtalar_angle_r	mtp_angle_r	hip_flexion_l	hip_adduction_l	hip_rotation_l	knee_angle_l	ankle_angle_l	subtalar_angle_l	mtp_angle_l	lumbar_extension	lumbar_bending	lumbar_rotation
      0.50800000	     -2.93045194	      0.46236877	      4.90244015	     -0.74625133	      1.02066201	      0.28893345	     22.57811089	      1.37576647	     -9.06712792	      2.59699035	      5.69963141	      0.94080974	      7.47870526	     -7.91616766	      5.21573768	      5.54864273	    -13.96434402	     12.33473376	     -4.81744235	     -1.74098188	     -3.85315826	     -2.78390393	     -5.53229558
      0.51216667	     -2.84783131	      0.37078291	      4.99218247	     -0.74054962	      1.02050353	      0.28889115	     22.47006099	      1.53583876	     -8.95049270	      2.18304918	      5.85527378	      0.74726283	      7.50334255	     -8.00485904	      5.07406271	      5.51532005	    -14.62327866	     12.32600505	     -4.64043288	     -1.70796301	     -3.90355926	     -2.67451884	     -5.60638094
      0.51633333	     -2.80440655	      0.27080545	      5.08195200	     -0.73481555	      1.02029344	      0.28885243	     22.41102702	      1.69908755	     -8.83330811	      1.71833508	      5.89032930	      0.43833985	      7.56123532	     -8.00959531	      4.91884621	      5.39931370	    -15.36613208	     12.34753980	     -4.33180652	     -1.62076677	     -3.89437931	     -2.56516286	     -5.69566616
      0.52050000	     -2.72273732	      0.16499936	      5.18594560	     -0.72905513	      1.02019134	      0.28876209	     22.31546351	      1.85958073	     -8.77015237	      1.19781442	      5.96740507	      0.22422300	      7.58018027	     -8.06553527	      4.76894880	      5.41976546	    -16.08011270	     12.20926265	     -4.31047554	     -1.59820863	     -3.93874949	     -2.44700569	     -5.70429980
      0.52466667	     -2.62652897	      0.04579271	      5.27799830	     -0.72324069	      1.02009095	      0.28873193	     22.15339063	      2.05191786	     -8.49839144	      0.76373268	      5.84583707	     -0.36212344	      7.69254507	     -8.07160446	      4.57051409	      5.17610931	    -16.92554625	     12.25137149	     -3.80194584	     -1.40879813	     -3.97643357	     -2.28771563	     -5.86123036
      0.52883333	     -2.51669244	     -0.07219251	      5.38148067	     -0.71738912	      1.02005781	      0.28865838	     21.97605099	      2.23497032	     -8.26932887	      0.29830454	      5.76005626	     -0.86038704	      7.81032645	     -8.10337716	      4.38729591	      5.07489194	    -17.74166460	     12.11814325	     -3.57225761	     -1.20837256	     -4.02886357	     -2.12413785	     -5.92209040
      0.53300000	     -2.36802748	     -0.18588695	      5.45637696	     -0.71151042	      1.02009335	      0.28864015	     21.74425052	      2.43167059	     -7.95738112	     -0.14404965	      5.48629162	     -1.55247518	      8.72825985	     -8.16985186	      4.20432357	      4.93792991	    -18.56494524	     11.92573058	     -3.38277137	      0.44610021	     -4.13991173	     -1.97726134	     -5.78899112
      0.53716667	     -2.31060328	     -0.29133609	      5.58806002	     -0.70561988	      1.02002321	      0.28855636	     21.62090196	      2.58500450	     -7.78257611	     -0.63209679	      5.27712818	     -2.06177181	      8.81410179	     -8.08238734	      4.02348188	      4.79697466	    -19.49124843	     11.74310552	     -3.09317611	      0.62596808	     -4.12141584	     -1.86546943	     -6.10601678
      0.54133333	     -2.17844086	     -0.41193998	      5.68845347	     -0.69966479	      1.02008574	      0.28852807	     21.37840887	      2.78079771	     -7.47005053	     -1.04180165	      4.93632348	     -2.76951258	      8.92457075	     -8.07724551	      3.81670599	      4.61497128	    -20.40639112	     11.50228715	     -2.81469930	      0.88260571	     -4.19221663	     -1.71286201	     -6.15389691
